<svg xmlns="http://www.w3.org/2000/svg" viewBox="0 0 512 512" width="100%" height="100%">
  <defs>
    <linearGradient id="bgGrad" x1="0%" y1="0%" x2="100%" y2="100%">
      <stop offset="0%" stop-color="#5850ec" />
      <stop offset="100%" stop-color="#7c3aed" />
    </linearGradient>
    <filter id="glow" x="-20%" y="-20%" width="140%" height="140%">
      <feGaussianBlur stdDeviation="15" result="blur" />
      <feComposite in="SourceGraphic" in2="blur" operator="over" />
    </filter>
  </defs>
  <rect width="512" height="512" rx="128" fill="url(#bgGrad)" />
  <g filter="url(#glow)" transform="translate(112, 106)">
    <!-- Sleek futuristic bolt inside chat shape -->
    <path d="M192 12C92.6 12 12 85.3 12 176c0 53.6 28.5 101.4 73.8 131.7L64 364c-3.1 6.2-2.1 13.5 2.6 18.7 4.7 5.2 12.1 7.3 18.8 5.2l76.3-23.9c10 2.6 20.4 4 30.3 4 99.4 0 180-73.3 180-164S291.4 12 192 12zm0 292c-10.4 0-20.7-1.3-30.8-4-5.2-1.4-10.8-.6-15.4 2.2l-37.1 11.6 11-21.9c3.1-6.2 2.1-13.6-2.5-18.7-31.9-35.1-49.2-80.6-49.2-127.2C68 83 123.6 36 192 36c68.4 0 124 47 124 105s-55.6 105-124 105z" fill="white" opacity="0.3"/>
    <!-- Bolt Symbol -->
    <path d="M150 140 L210 50 L195 120 L245 120 L185 210 L200 140 Z" fill="white" filter="url(#glow)" />
  </g>
</svg>
